<svg width="2288" height="416" viewBox="0 0 2288 416" fill="none" xmlns="http://www.w3.org/2000/svg">
<g clip-path="url(#clip0_4007_2)">
<path d="M208 416C322.878 416 416 322.878 416 208V62.4C416 45.8505 409.426 29.9788 397.723 18.2765C386.021 6.57427 370.149 0 353.6 0L218.4 0V91.2496C218.4 112.07 219.669 133.64 230.589 151.362C238.406 164.062 248.864 174.933 261.253 183.235C273.642 191.538 287.671 197.079 302.39 199.482L306.373 200.127C308.016 200.688 309.441 201.749 310.45 203.161C311.46 204.573 312.002 206.265 312.002 208C312.002 209.735 311.46 211.427 310.45 212.839C309.441 214.251 308.016 215.311 306.373 215.873L302.39 216.518C280.885 220.031 261.026 230.21 245.618 245.618C230.21 261.026 220.03 280.885 216.517 302.39L215.873 306.374C215.311 308.016 214.251 309.441 212.839 310.451C211.427 311.46 209.735 312.003 208 312.003C206.264 312.003 204.572 311.46 203.161 310.451C201.749 309.441 200.688 308.016 200.127 306.374L199.482 302.39C197.078 287.672 191.537 273.642 183.234 261.254C174.932 248.865 164.062 238.407 151.361 230.589C133.64 219.669 112.07 218.4 91.2495 218.4H0.249451C5.68865 328.442 96.6158 416 208 416Z" fill="#FE4500"/>
<path d="M0 197.6H91.2496C112.07 197.6 133.64 196.331 151.362 185.411C165.215 176.876 176.876 165.215 185.411 151.362C196.331 133.64 197.6 112.07 197.6 91.2496V0H62.4C45.8505 0 29.9788 6.57427 18.2765 18.2765C6.57427 29.9788 0 45.8505 0 62.4L0 197.6Z" fill="#FE4500"/>
<path d="M602.817 227.498V181.12H651.732C662.36 181.12 670.452 178.584 676.008 173.511C681.806 168.197 684.704 161.071 684.704 152.133C684.704 143.437 681.806 136.432 676.008 131.118C670.452 125.562 662.36 122.785 651.732 122.785H602.817V74.5946H660.79C678.182 74.5946 693.4 77.8556 706.444 84.3775C719.729 90.8995 730.116 99.837 737.604 111.19C745.093 122.543 748.837 135.828 748.837 151.046C748.837 166.264 744.972 179.671 737.242 191.265C729.754 202.618 719.246 211.556 705.719 218.078C692.192 224.358 676.371 227.498 658.254 227.498H602.817ZM551.366 331.487V74.5946H616.224V331.487H551.366ZM690.501 331.487L615.861 221.339L674.197 207.208L765.504 331.487H690.501Z" fill="#FE4500"/>
<path d="M871.194 335.473C851.387 335.473 833.874 331.608 818.656 323.878C803.438 315.907 791.481 304.916 782.785 290.906C774.089 276.896 769.741 260.833 769.741 242.716C769.741 224.841 773.969 209.019 782.423 195.251C790.877 181.241 802.351 170.25 816.844 162.279C831.579 154.066 848.126 149.959 866.484 149.959C884.359 149.959 900.181 153.824 913.949 161.554C927.959 169.042 938.829 179.55 946.559 193.077C954.53 206.362 958.516 221.58 958.516 238.73C958.516 242.354 958.274 246.098 957.791 249.963C957.55 253.586 956.825 257.813 955.617 262.644L799.453 263.369V222.788L930.616 221.701L902.354 239.455C902.113 229.551 900.664 221.459 898.007 215.179C895.349 208.657 891.485 203.705 886.412 200.323C881.339 196.942 874.938 195.251 867.208 195.251C859.237 195.251 852.353 197.183 846.556 201.048C840.758 204.913 836.29 210.348 833.149 217.353C830.009 224.358 828.439 232.812 828.439 242.716C828.439 252.861 830.13 261.557 833.512 268.804C836.893 275.809 841.725 281.123 848.005 284.746C854.285 288.37 862.015 290.181 871.194 290.181C879.89 290.181 887.499 288.732 894.021 285.833C900.784 282.935 906.823 278.466 912.137 272.427L945.11 305.399C936.414 315.303 925.785 322.791 913.224 327.864C900.905 332.936 886.895 335.473 871.194 335.473Z" fill="#FE4500"/>
<path d="M1062.04 335.11C1044.89 335.11 1029.79 331.125 1016.75 323.153C1003.7 315.182 993.436 304.312 985.948 290.544C978.702 276.534 975.078 260.712 975.078 243.078C975.078 225.203 978.702 209.261 985.948 195.251C993.436 181.241 1003.58 170.371 1016.38 162.641C1029.43 154.67 1044.65 150.684 1062.04 150.684C1073.15 150.684 1083.54 152.737 1093.2 156.844C1102.86 160.709 1110.95 166.264 1117.47 173.511C1124 180.758 1127.86 188.97 1129.07 198.149V284.746C1127.86 293.925 1124 302.38 1117.47 310.11C1110.95 317.839 1102.86 323.999 1093.2 328.588C1083.54 332.936 1073.15 335.11 1062.04 335.11ZM1073.27 278.949C1080.27 278.949 1086.31 277.5 1091.39 274.601C1096.46 271.461 1100.44 267.234 1103.34 261.92C1106.48 256.364 1108.05 249.963 1108.05 242.716C1108.05 235.711 1106.6 229.551 1103.71 224.237C1100.81 218.923 1096.7 214.696 1091.39 211.556C1086.31 208.415 1080.4 206.845 1073.63 206.845C1066.87 206.845 1060.83 208.415 1055.52 211.556C1050.44 214.696 1046.34 219.044 1043.2 224.6C1040.3 229.914 1038.85 235.953 1038.85 242.716C1038.85 249.721 1040.3 256.002 1043.2 261.557C1046.1 266.871 1050.2 271.099 1055.52 274.239C1060.83 277.379 1066.75 278.949 1073.27 278.949ZM1167.48 331.487H1105.52V284.022L1114.58 240.542L1104.43 197.787V67.348H1167.48V331.487Z" fill="#FE4500"/>
<path d="M1283.98 335.11C1266.83 335.11 1251.73 331.125 1238.69 323.153C1225.64 315.182 1215.38 304.312 1207.89 290.544C1200.64 276.534 1197.02 260.712 1197.02 243.078C1197.02 225.203 1200.64 209.261 1207.89 195.251C1215.38 181.241 1225.52 170.371 1238.33 162.641C1251.37 154.67 1266.59 150.684 1283.98 150.684C1295.09 150.684 1305.48 152.737 1315.14 156.844C1324.8 160.709 1332.89 166.264 1339.42 173.511C1345.94 180.758 1349.8 188.97 1351.01 198.149V284.746C1349.8 293.925 1345.94 302.38 1339.42 310.11C1332.89 317.839 1324.8 323.999 1315.14 328.588C1305.48 332.936 1295.09 335.11 1283.98 335.11ZM1295.21 278.949C1302.22 278.949 1308.26 277.5 1313.33 274.601C1318.4 271.461 1322.39 267.234 1325.29 261.92C1328.43 256.364 1330 249.963 1330 242.716C1330 235.711 1328.55 229.551 1325.65 224.237C1322.75 218.923 1318.64 214.696 1313.33 211.556C1308.26 208.415 1302.34 206.845 1295.57 206.845C1288.81 206.845 1282.77 208.415 1277.46 211.556C1272.38 214.696 1268.28 219.044 1265.14 224.6C1262.24 229.914 1260.79 235.953 1260.79 242.716C1260.79 249.721 1262.24 256.002 1265.14 261.557C1268.04 266.871 1272.14 271.099 1277.46 274.239C1282.77 277.379 1288.69 278.949 1295.21 278.949ZM1389.42 331.487H1327.46V284.022L1336.52 240.542L1326.37 197.787V67.348H1389.42V331.487Z" fill="#FE4500"/>
<path d="M1429.47 331.487V154.307H1492.88V331.487H1429.47ZM1460.99 133.655C1451.57 133.655 1443.72 130.514 1437.44 124.234C1431.16 117.712 1428.02 109.62 1428.02 99.9577C1428.02 90.5371 1431.16 82.5659 1437.44 76.0439C1443.72 69.522 1451.57 66.261 1460.99 66.261C1470.9 66.261 1478.87 69.522 1484.91 76.0439C1491.19 82.5659 1494.33 90.5371 1494.33 99.9577C1494.33 109.62 1491.19 117.712 1484.91 124.234C1478.87 130.514 1470.9 133.655 1460.99 133.655Z" fill="#FE4500"/>
<path d="M1554.98 331.487V143.075C1554.98 128.099 1558.24 114.693 1564.76 102.856C1571.28 90.7787 1580.58 81.1165 1592.66 73.8699C1604.98 66.6233 1619.71 63 1636.86 63C1649.67 63 1660.9 65.174 1670.56 69.522C1680.22 73.6284 1688.56 79.1841 1695.56 86.1892L1656.07 125.683C1654.14 123.509 1651.72 121.939 1648.82 120.973C1646.16 119.765 1643.02 119.161 1639.4 119.161C1632.88 119.161 1627.68 121.094 1623.82 124.959C1619.96 128.823 1618.02 134.017 1618.02 140.539V331.487H1554.98ZM1517.29 206.845V154.307H1668.02V206.845H1517.29Z" fill="#FE4500"/>
<path d="M1750.05 331.849L1679.03 154.307H1746.43L1789.91 300.327H1763.46L1807.3 154.307H1874.69L1801.86 331.849H1750.05ZM1708.02 406.49L1760.56 290.906L1801.86 331.849L1771.43 406.49H1708.02Z" fill="#FE4500"/>
</g>
<defs>
<clipPath id="clip0_4007_2">
<rect width="2288" height="416" fill="white"/>
</clipPath>
</defs>
</svg>
